<?xml version="1.0" ?>
<svg version="1.1" 
  xmlns="http://www.w3.org/2000/svg" width="512" height="512" viewBox="0 0 512 512" enable-background="new 0 0 512 512">
  <g>
    <path d="m376.6,215.6v-184.2c0-11.3-9.1-20.4-20.4-20.4h-324.8c-11.3,0-20.4,9.1-20.4,20.4v325.7c0,11.3 9.1,20.4 20.4,20.4h185.2c9.7,69.7 69.4,123.5 141.5,123.5 78.8,0 142.9-64.3 142.9-143.3 0-72.7-54.3-133-124.4-142.1zm-324.8-163.8h283.9v107.4l-68.3-61.2c-5.5-5.5-21.6-10.1-31.2,4.9l-67.5,115.4-19.8-34.3c-4.7-9.7-24.4-16.7-34.8-0.9l-62.2,96.3v-227.6zm11.5,284.9l66.8-103.3 59.7,103.3h-126.5zm128.8-77.7l66.6-113.9 76.9,71.1c-52.9,8.4-96.2,45.9-113,95.6l-30.5-52.8zm165.9,201.2c-56.3,0-102.1-46-102.1-102.5 0-0.2 0-0.3 0-0.5 0,0 0,0 0-0.1 0.3-56.2 46-101.9 102.1-101.9 56.3,0 102.1,46 102.1,102.4-5.68434e-14,56.6-45.8,102.6-102.1,102.6z"/>
    <path d="m410,305.8c-8-8-20.9-8-28.9,0l-23,23-23.1-23.1c-8-8-20.9-8-28.9,0-8,8-8,20.9 0,28.9l23.1,23.1-23.1,23.1c-8,8-8,20.9 0,28.9 8,8 20.9,8 28.9,0l23.1-23.1 23,23c8,8 20.9,8 28.9,0 8-8 8-20.9 0-28.9l-23-23 23-23c8-8 8-20.9 0-28.9z"/>
    <circle cx="131.2" cy="109.2" r="21.4"/>
  </g>
</svg>
